<svg aria-hidden="true" style="position: absolute; width: 0; height: 0; overflow: hidden;" version="1.1" xmlns="http://www.w3.org/2000/svg" xmlns:xlink="http://www.w3.org/1999/xlink">
<defs>
<symbol id="icon-TypeAdd" viewBox="0 0 32 32">
<path fill="#8e91a0" style="fill: var(--color1, #8e91a0)" d="M16 5.333c0.736 0 1.333 0.597 1.333 1.333v8h8c0.736 0 1.333 0.597 1.333 1.333s-0.597 1.333-1.333 1.333h-8v8c0 0.736-0.597 1.333-1.333 1.333s-1.333-0.597-1.333-1.333v-8h-8c-0.736 0-1.333-0.597-1.333-1.333s0.597-1.333 1.333-1.333h8v-8c0-0.736 0.597-1.333 1.333-1.333z"></path>
</symbol>
<symbol id="icon-TypeDendie" viewBox="0 0 32 32">
<path fill="#8e91a0" style="fill: var(--color1, #8e91a0)" d="M16 5.333c-5.891 0-10.667 4.776-10.667 10.667s4.776 10.667 10.667 10.667c5.891 0 10.667-4.776 10.667-10.667s-4.776-10.667-10.667-10.667zM2.667 16c0-7.364 5.97-13.333 13.333-13.333s13.333 5.97 13.333 13.333c0 7.364-5.97 13.333-13.333 13.333s-13.333-5.97-13.333-13.333z"></path>
<path fill="#8e91a0" style="fill: var(--color1, #8e91a0)" d="M12.391 12.391c0.521-0.521 1.365-0.521 1.886 0l1.724 1.724 1.724-1.724c0.521-0.521 1.365-0.521 1.886 0s0.521 1.365 0 1.886l-1.724 1.724 1.724 1.724c0.521 0.521 0.521 1.365 0 1.886s-1.365 0.521-1.886 0l-1.724-1.724-1.724 1.724c-0.521 0.521-1.365 0.521-1.886 0s-0.521-1.365 0-1.886l1.724-1.724-1.724-1.724c-0.521-0.521-0.521-1.365 0-1.886z"></path>
</symbol>
<symbol id="icon-TypeWatch" viewBox="0 0 32 32">
<path fill="#8e91a0" style="fill: var(--color1, #8e91a0)" d="M16 14.667c-0.736 0-1.333 0.597-1.333 1.333s0.597 1.333 1.333 1.333c0.736 0 1.333-0.597 1.333-1.333s-0.597-1.333-1.333-1.333zM12 16c0-2.209 1.791-4 4-4s4 1.791 4 4c0 2.209-1.791 4-4 4s-4-1.791-4-4z"></path>
<path fill="#8e91a0" style="fill: var(--color1, #8e91a0)" d="M4.213 16c3.331 5.507 7.271 8 11.787 8s8.456-2.493 11.787-8c-3.331-5.507-7.271-8-11.787-8s-8.456 2.493-11.787 8zM1.509 15.338c3.701-6.476 8.518-10.005 14.491-10.005s10.79 3.529 14.491 10.005c0.234 0.41 0.234 0.913 0 1.323-3.701 6.476-8.518 10.005-14.491 10.005s-10.79-3.529-14.491-10.005c-0.234-0.41-0.234-0.913 0-1.323z"></path>
</symbol>
<symbol id="icon-TypeEdit" viewBox="0 0 32 32">
<path fill="#8e91a0" style="fill: var(--color1, #8e91a0)" d="M5.172 9.172c0.75-0.75 1.768-1.172 2.828-1.172h4c0.736 0 1.333 0.597 1.333 1.333s-0.597 1.333-1.333 1.333h-4c-0.354 0-0.693 0.14-0.943 0.391s-0.391 0.589-0.391 0.943v12c0 0.354 0.14 0.693 0.391 0.943s0.589 0.391 0.943 0.391h12c0.354 0 0.693-0.141 0.943-0.391s0.391-0.589 0.391-0.943v-4c0-0.736 0.597-1.333 1.333-1.333s1.333 0.597 1.333 1.333v4c0 1.061-0.421 2.078-1.172 2.828s-1.767 1.172-2.828 1.172h-12c-1.061 0-2.078-0.421-2.828-1.172s-1.172-1.768-1.172-2.828v-12c0-1.061 0.421-2.078 1.172-2.828z"></path>
<path fill="#8e91a0" style="fill: var(--color1, #8e91a0)" d="M22.391 3.724c0.781-0.78 1.839-1.219 2.943-1.219s2.162 0.438 2.943 1.219c0.781 0.78 1.219 1.839 1.219 2.943s-0.438 2.162-1.219 2.943l-11.333 11.333c-0.25 0.25-0.589 0.391-0.943 0.391h-4c-0.736 0-1.333-0.597-1.333-1.333v-4c0-0.354 0.14-0.693 0.391-0.943l11.333-11.333zM25.333 5.172c-0.397 0-0.777 0.158-1.057 0.438l-10.943 10.943v2.114h2.114l10.943-10.943c0.28-0.28 0.438-0.661 0.438-1.057s-0.157-0.777-0.438-1.057c-0.28-0.28-0.661-0.438-1.057-0.438z"></path>
<path fill="#8e91a0" style="fill: var(--color1, #8e91a0)" d="M20.391 5.724c0.521-0.521 1.365-0.521 1.886 0l4 4c0.521 0.521 0.521 1.365 0 1.886s-1.365 0.521-1.886 0l-4-4c-0.521-0.521-0.521-1.365 0-1.886z"></path>
</symbol>
</defs>
</svg>
