<svg width="24" height="24" viewBox="0 0 24 24" fill="none" xmlns="http://www.w3.org/2000/svg">
<path fill-rule="evenodd" clip-rule="evenodd" d="M12 11C11.4477 11 11 11.4477 11 12C11 12.5523 11.4477 13 12 13C12.5523 13 13 12.5523 13 12C13 11.4477 12.5523 11 12 11ZM9 12C9 10.3431 10.3431 9 12 9C13.6569 9 15 10.3431 15 12C15 13.6569 13.6569 15 12 15C10.3431 15 9 13.6569 9 12Z" fill="#8E91A0"/>
<path fill-rule="evenodd" clip-rule="evenodd" d="M3.15986 12C5.65779 16.1305 8.61278 18 12 18C15.3872 18 18.3422 16.1305 20.8401 12C18.3422 7.86948 15.3872 6 12 6C8.61278 6 5.65779 7.86948 3.15986 12ZM1.13177 11.5038C3.9072 6.64709 7.51999 4 12 4C16.48 4 20.0928 6.64709 22.8682 11.5038C23.0439 11.8113 23.0439 12.1887 22.8682 12.4962C20.0928 17.3529 16.48 20 12 20C7.51999 20 3.9072 17.3529 1.13177 12.4962C0.956077 12.1887 0.956077 11.8113 1.13177 11.5038Z" fill="#8E91A0"/>
</svg>
