<svg aria-hidden="true" style="position: absolute; width: 0; height: 0; overflow: hidden;" version="1.1" xmlns="http://www.w3.org/2000/svg" xmlns:xlink="http://www.w3.org/1999/xlink">
<defs>
<symbol id="icon-TypeAdd" viewBox="0 0 32 32">
<path fill="#8e91a0" style="fill: var(--color1, #8e91a0)" d="M16 5.333c0.736 0 1.333 0.597 1.333 1.333v8h8c0.736 0 1.333 0.597 1.333 1.333s-0.597 1.333-1.333 1.333h-8v8c0 0.736-0.597 1.333-1.333 1.333s-1.333-0.597-1.333-1.333v-8h-8c-0.736 0-1.333-0.597-1.333-1.333s0.597-1.333 1.333-1.333h8v-8c0-0.736 0.597-1.333 1.333-1.333z"></path>
</symbol>
<symbol id="icon-TypeDendie" viewBox="0 0 32 32">
<path fill="#8e91a0" style="fill: var(--color1, #8e91a0)" d="M16 5.333c-5.891 0-10.667 4.776-10.667 10.667s4.776 10.667 10.667 10.667c5.891 0 10.667-4.776 10.667-10.667s-4.776-10.667-10.667-10.667zM2.667 16c0-7.364 5.97-13.333 13.333-13.333s13.333 5.97 13.333 13.333c0 7.364-5.97 13.333-13.333 13.333s-13.333-5.97-13.333-13.333z"></path>
<path fill="#8e91a0" style="fill: var(--color1, #8e91a0)" d="M12.391 12.391c0.521-0.521 1.365-0.521 1.886 0l1.724 1.724 1.724-1.724c0.521-0.521 1.365-0.521 1.886 0s0.521 1.365 0 1.886l-1.724 1.724 1.724 1.724c0.521 0.521 0.521 1.365 0 1.886s-1.365 0.521-1.886 0l-1.724-1.724-1.724 1.724c-0.521 0.521-1.365 0.521-1.886 0s-0.521-1.365 0-1.886l1.724-1.724-1.724-1.724c-0.521-0.521-0.521-1.365 0-1.886z"></path>
</symbol>
<symbol id="icon-TypeWatch" viewBox="0 0 32 32">
<path fill="#8e91a0" style="fill: var(--color1, #8e91a0)" d="M16 14.667c-0.736 0-1.333 0.597-1.333 1.333s0.597 1.333 1.333 1.333c0.736 0 1.333-0.597 1.333-1.333s-0.597-1.333-1.333-1.333zM12 16c0-2.209 1.791-4 4-4s4 1.791 4 4c0 2.209-1.791 4-4 4s-4-1.791-4-4z"></path>
<path fill="#8e91a0" style="fill: var(--color1, #8e91a0)" d="M4.213 16c3.331 5.507 7.271 8 11.787 8s8.456-2.493 11.787-8c-3.331-5.507-7.271-8-11.787-8s-8.456 2.493-11.787 8zM1.509 15.338c3.701-6.476 8.518-10.005 14.491-10.005s10.79 3.529 14.491 10.005c0.234 0.41 0.234 0.913 0 1.323-3.701 6.476-8.518 10.005-14.491 10.005s-10.79-3.529-14.491-10.005c-0.234-0.41-0.234-0.913 0-1.323z"></path>
</symbol>
<symbol id="icon-TypeEdit" viewBox="0 0 32 32">
<path fill="#8e91a0" style="fill: var(--color1, #8e91a0)" d="M5.172 9.172c0.75-0.75 1.768-1.172 2.828-1.172h4c0.736 0 1.333 0.597 1.333 1.333s-0.597 1.333-1.333 1.333h-4c-0.354 0-0.693 0.14-0.943 0.391s-0.391 0.589-0.391 0.943v12c0 0.354 0.14 0.693 0.391 0.943s0.589 0.391 0.943 0.391h12c0.354 0 0.693-0.141 0.943-0.391s0.391-0.589 0.391-0.943v-4c0-0.736 0.597-1.333 1.333-1.333s1.333 0.597 1.333 1.333v4c0 1.061-0.421 2.078-1.172 2.828s-1.767 1.172-2.828 1.172h-12c-1.061 0-2.078-0.421-2.828-1.172s-1.172-1.768-1.172-2.828v-12c0-1.061 0.421-2.078 1.172-2.828z"></path>
<path fill="#8e91a0" style="fill: var(--color1, #8e91a0)" d="M22.391 3.724c0.781-0.78 1.839-1.219 2.943-1.219s2.162 0.438 2.943 1.219c0.781 0.78 1.219 1.839 1.219 2.943s-0.438 2.162-1.219 2.943l-11.333 11.333c-0.25 0.25-0.589 0.391-0.943 0.391h-4c-0.736 0-1.333-0.597-1.333-1.333v-4c0-0.354 0.14-0.693 0.391-0.943l11.333-11.333zM25.333 5.172c-0.397 0-0.777 0.158-1.057 0.438l-10.943 10.943v2.114h2.114l10.943-10.943c0.28-0.28 0.438-0.661 0.438-1.057s-0.157-0.777-0.438-1.057c-0.28-0.28-0.661-0.438-1.057-0.438z"></path>
<path fill="#8e91a0" style="fill: var(--color1, #8e91a0)" d="M20.391 5.724c0.521-0.521 1.365-0.521 1.886 0l4 4c0.521 0.521 0.521 1.365 0 1.886s-1.365 0.521-1.886 0l-4-4c-0.521-0.521-0.521-1.365 0-1.886z"></path>
</symbol>
<symbol id="icon-TypeUsers" viewBox="0 0 32 32">
<path fill="#8e91a0" style="fill: var(--color1, #8e91a0)" d="M12 5.333c-2.209 0-4 1.791-4 4s1.791 4 4 4c2.209 0 4-1.791 4-4s-1.791-4-4-4zM5.333 9.333c0-3.682 2.985-6.667 6.667-6.667s6.667 2.985 6.667 6.667c0 3.682-2.985 6.667-6.667 6.667s-6.667-2.985-6.667-6.667z"></path>
<path fill="#8e91a0" style="fill: var(--color1, #8e91a0)" d="M9.333 21.333c-1.061 0-2.078 0.421-2.828 1.172s-1.172 1.768-1.172 2.828v2.667c0 0.736-0.597 1.333-1.333 1.333s-1.333-0.597-1.333-1.333v-2.667c0-1.768 0.702-3.464 1.953-4.714s2.946-1.953 4.714-1.953h5.333c1.768 0 3.464 0.702 4.714 1.953s1.953 2.946 1.953 4.714v2.667c0 0.736-0.597 1.333-1.333 1.333s-1.333-0.597-1.333-1.333v-2.667c0-1.061-0.421-2.078-1.172-2.828s-1.768-1.172-2.828-1.172h-5.333z"></path>
<path fill="#8e91a0" style="fill: var(--color1, #8e91a0)" d="M20.042 3.842c0.183-0.713 0.909-1.144 1.622-0.961 1.434 0.367 2.705 1.201 3.613 2.371s1.4 2.608 1.4 4.088-0.493 2.918-1.4 4.088c-0.908 1.169-2.179 2.003-3.613 2.371-0.713 0.183-1.44-0.248-1.622-0.961s0.248-1.44 0.961-1.622c0.86-0.22 1.623-0.721 2.168-1.422s0.84-1.565 0.84-2.453-0.296-1.751-0.84-2.453c-0.545-0.702-1.307-1.202-2.168-1.422-0.713-0.183-1.144-0.909-0.961-1.622z"></path>
<path fill="#8e91a0" style="fill: var(--color1, #8e91a0)" d="M22.709 19.867c0.184-0.713 0.911-1.142 1.624-0.958 1.425 0.368 2.688 1.197 3.592 2.357s1.399 2.588 1.408 4.059l0 0.008h-0v2.667c0 0.736-0.597 1.333-1.333 1.333s-1.333-0.597-1.333-1.333v-2.663c-0.006-0.882-0.303-1.737-0.845-2.432s-1.3-1.194-2.155-1.414c-0.713-0.184-1.142-0.911-0.958-1.624z"></path>
</symbol>
<symbol id="icon-TypeHome" viewBox="0 0 32 32">
<path fill="#8e91a0" style="fill: var(--color1, #8e91a0)" d="M15.057 3.057c0.521-0.521 1.365-0.521 1.886 0l12 12c0.381 0.381 0.495 0.955 0.289 1.453s-0.693 0.823-1.232 0.823h-2.667c-0.736 0-1.333-0.597-1.333-1.333 0-0.572 0.36-1.059 0.865-1.249l-8.865-8.865-8.865 8.865c0.506 0.189 0.865 0.677 0.865 1.249 0 0.736-0.597 1.333-1.333 1.333h-2.667c-0.539 0-1.025-0.325-1.232-0.823s-0.092-1.072 0.289-1.453l12-12z"></path>
<path fill="#8e91a0" style="fill: var(--color1, #8e91a0)" d="M6.667 14.667c0.736 0 1.333 0.597 1.333 1.333v9.333c0 0.354 0.14 0.693 0.391 0.943s0.589 0.391 0.943 0.391h13.333c0.354 0 0.693-0.141 0.943-0.391s0.391-0.589 0.391-0.943v-9.333c0-0.736 0.597-1.333 1.333-1.333s1.333 0.597 1.333 1.333v9.333c0 1.061-0.421 2.078-1.172 2.828s-1.767 1.172-2.828 1.172h-13.333c-1.061 0-2.078-0.421-2.828-1.172s-1.172-1.768-1.172-2.828v-9.333c0-0.736 0.597-1.333 1.333-1.333z"></path>
<path fill="#8e91a0" style="fill: var(--color1, #8e91a0)" d="M14.667 18.667c-0.354 0-0.693 0.141-0.943 0.391s-0.391 0.589-0.391 0.943v8c0 0.736-0.597 1.333-1.333 1.333s-1.333-0.597-1.333-1.333v-8c0-1.061 0.421-2.078 1.172-2.828s1.768-1.172 2.828-1.172h2.667c1.061 0 2.078 0.421 2.828 1.172s1.172 1.767 1.172 2.828v8c0 0.736-0.597 1.333-1.333 1.333s-1.333-0.597-1.333-1.333v-8c0-0.354-0.141-0.693-0.391-0.943s-0.589-0.391-0.943-0.391h-2.667z"></path>
</symbol>
<symbol id="icon-car-solid" viewBox="0 0 32 32">
<path fill="#8e91a0" style="fill: var(--color1, #8e91a0)" d="M31.249 11h-3.742l-1.040-2.6c-1.069-2.673-3.619-4.4-6.499-4.4h-7.938c-2.879 0-5.43 1.727-6.499 4.4l-1.040 2.6h-3.741c-0.488 0-0.846 0.459-0.728 0.932l0.375 1.5c0.083 0.334 0.383 0.568 0.728 0.568h1.254c-0.839 0.733-1.38 1.799-1.38 3v3c0 1.008 0.385 1.917 1 2.621v3.379c0 1.104 0.896 2 2 2h2c1.104 0 2-0.896 2-2v-2h16v2c0 1.104 0.896 2 2 2h2c1.104 0 2-0.896 2-2v-3.379c0.615-0.703 1-1.613 1-2.621v-3c0-1.201-0.541-2.267-1.379-3h1.254c0.344 0 0.644-0.234 0.727-0.568l0.375-1.5c0.118-0.473-0.24-0.932-0.728-0.932zM9.246 9.886c0.456-1.139 1.559-1.886 2.786-1.886h7.938c1.227 0 2.33 0.747 2.786 1.886l1.246 3.114h-16l1.246-3.114zM6 19.988c-1.2 0-2-0.797-2-1.994s0.8-1.994 2-1.994 3 1.794 3 2.991-1.8 0.997-3 0.997zM26 19.988c-1.2 0-3 0.199-3-0.997s1.8-2.991 3-2.991 2 0.797 2 1.994-0.8 1.994-2 1.994z"></path>
</symbol>
</defs>
</svg>
