<svg width="80" height="34" xmlns="http://www.w3.org/2000/svg">
 <g>
  <title>background</title>
  <rect fill="#ffffff" id="canvas_background" height="36" width="82" y="-1" x="-1"/>
 </g>
 <g>
  <title>Layer 1</title>
  <g id="svg_1">
   <path id="svg_1" fill="#010002" d="m15.532,33.876c-3.977,0 -7.213,-3.242 -7.213,-7.197c0,-3.998 3.236,-7.224 7.213,-7.224c3.987,0 7.226,3.226 7.226,7.224c0,3.954 -3.239,7.197 -7.226,7.197zm0,-11.102c-2.128,0 -3.876,1.75 -3.876,3.883c0,2.129 1.748,3.879 3.876,3.879c2.141,0 3.886,-1.75 3.886,-3.879c0,-2.133 -1.745,-3.883 -3.886,-3.883zm48.605,11.102c-3.987,0 -7.219,-3.242 -7.219,-7.197c0,-3.998 3.231,-7.224 7.219,-7.224c3.977,0 7.208,3.226 7.208,7.224c0,3.954 -3.232,7.197 -7.208,7.197zm0,-11.102c-2.144,0 -3.895,1.75 -3.895,3.883c0,2.129 1.751,3.879 3.895,3.879c2.139,0 3.884,-1.75 3.884,-3.879c0,-2.133 -1.746,-3.883 -3.884,-3.883zm14.001,-1.513c0,-7.011 -4.365,-7.842 -4.365,-7.842c-6.426,-0.912 -17.496,-1.38 -17.496,-1.38c-1.016,-1.766 -5.707,-12.039 -8.44,-12.039c-0.911,0 -20.508,0 -23.975,0c-3.472,0 -9.167,10.024 -10.413,12.285c0,0 -4.36,0.758 -6.416,1.219c-1.142,0.265 -4.301,0.324 -4.301,9.155l-2.732,0l0,3.997l6.654,0c0,-4.908 3.982,-8.885 8.878,-8.885c4.914,0 8.886,3.977 8.886,8.885l30.827,0c0,-4.908 3.967,-8.885 8.892,-8.885c4.898,0 8.875,3.977 8.875,8.885l6.524,0l0,-5.396l-1.398,0l0,0.001zm-42.549,-9.9l-13.838,0c1.872,-5.831 5.339,-9.994 6.801,-9.994c1.841,0 7.037,0 7.037,0l0,9.994zm2.579,0l0,-9.994c0,0 7.141,0 8.974,0c1.854,0 5.893,8.461 7.032,10.625l-16.006,-0.631z"/>
  </g>
  <text font-weight="bold" stroke="#fcf9f9" xml:space="preserve" text-anchor="start" font-family="'Times New Roman', Times, serif" font-size="12" id="svg_8" y="24" x="25" stroke-width="0" fill="#f9f7f7">TAXI</text>
 </g>
</svg>